<svg id="Layer_1" data-name="Layer 1" xmlns="http://www.w3.org/2000/svg" viewBox="0 0 128 128"><defs><style>.cls-1{fill:#1d75b8;}.cls-2{fill:#2d3e50;}</style></defs><title>n</title><path class="cls-1" d="M78.53129,30.65724a2.94891,2.94891,0,0,0-4.17,0L59.893,45.12574l-6.2546-6.25462a2.94846,2.94846,0,1,0-4.16975,4.16975l8.33949,8.33949a2.94839,2.94839,0,0,0,4.16975,0L78.53129,34.827A2.94854,2.94854,0,0,0,78.53129,30.65724Z" id="id_101" style="fill: rgb(133, 5, 5);"></path><path class="cls-2" d="M126.54981,48.82565a1.8342,1.8342,0,0,0-.11746-.63623,3.18037,3.18037,0,0,0-1.26021-1.78148L107.23746,33.94007V9.56223a3.20827,3.20827,0,0,0-3.20814-3.20811H23.97064a3.20826,3.20826,0,0,0-3.20813,3.20811V33.781L2.73975,46.23908A3.19769,3.19769,0,0,0,1.3596,48.833a.40026.40026,0,0,0-.00488.05627l.09543,69.55338a3.20408,3.20408,0,0,0,3.20813,3.20323h.00488l118.77642-.1615a3.2104,3.2104,0,0,0,3.2057-3.213Zm-105.7873,7.351L10.2058,48.87949,20.76251,41.5823Zm77.8539,3.142L76.16687,74.92867,67.37941,68.1111a1.83418,1.83418,0,0,0-.16152-.11746,5.42253,5.42253,0,0,0-6.48721.10522l-8.878,6.88855L29.38358,59.45577v-44.483H98.61641Zm8.62105-3.31089V41.756l10.25324,7.12346Z" id="id_102" style="fill: rgb(133, 3, 3);"></path></svg>